<mxfile host="app.diagrams.net" agent="Mozilla/5.0 (X11; Linux x86_64) AppleWebKit/537.36 (KHTML, like Gecko) Chrome/131.0.0.0 Safari/537.36" version="26.0.5">
  <diagram name="Page-1" id="cbcJ0zMDsIcDFBkq_0nb">
    <mxGraphModel dx="495" dy="315" grid="0" gridSize="10" guides="1" tooltips="1" connect="1" arrows="1" fold="1" page="1" pageScale="1" pageWidth="850" pageHeight="1100" math="1" shadow="0">
      <root>
        <mxCell id="0" />
        <mxCell id="1" parent="0" />
        <mxCell id="j6zDTzHuyQ6x4GbX-fn--3" value="" style="group" vertex="1" connectable="0" parent="1">
          <mxGeometry x="310" y="260" width="70" height="80" as="geometry" />
        </mxCell>
        <mxCell id="j6zDTzHuyQ6x4GbX-fn--1" value="" style="triangle;whiteSpace=wrap;html=1;" vertex="1" parent="j6zDTzHuyQ6x4GbX-fn--3">
          <mxGeometry width="60" height="80" as="geometry" />
        </mxCell>
        <mxCell id="j6zDTzHuyQ6x4GbX-fn--2" value="" style="ellipse;whiteSpace=wrap;html=1;aspect=fixed;" vertex="1" parent="j6zDTzHuyQ6x4GbX-fn--3">
          <mxGeometry x="60" y="35" width="10" height="10" as="geometry" />
        </mxCell>
        <mxCell id="j6zDTzHuyQ6x4GbX-fn--4" value="" style="group" vertex="1" connectable="0" parent="1">
          <mxGeometry x="450" y="260" width="120" height="80" as="geometry" />
        </mxCell>
        <mxCell id="j6zDTzHuyQ6x4GbX-fn--5" value="" style="triangle;whiteSpace=wrap;html=1;" vertex="1" parent="j6zDTzHuyQ6x4GbX-fn--4">
          <mxGeometry width="60" height="80" as="geometry" />
        </mxCell>
        <mxCell id="j6zDTzHuyQ6x4GbX-fn--6" value="" style="ellipse;whiteSpace=wrap;html=1;aspect=fixed;" vertex="1" parent="j6zDTzHuyQ6x4GbX-fn--4">
          <mxGeometry x="60" y="35" width="10" height="10" as="geometry" />
        </mxCell>
        <mxCell id="j6zDTzHuyQ6x4GbX-fn--7" style="edgeStyle=orthogonalEdgeStyle;rounded=0;orthogonalLoop=1;jettySize=auto;html=1;entryX=0;entryY=0.5;entryDx=0;entryDy=0;" edge="1" parent="1" target="j6zDTzHuyQ6x4GbX-fn--5">
          <mxGeometry relative="1" as="geometry">
            <mxPoint x="380" y="300" as="sourcePoint" />
          </mxGeometry>
        </mxCell>
        <mxCell id="j6zDTzHuyQ6x4GbX-fn--8" style="edgeStyle=orthogonalEdgeStyle;rounded=0;orthogonalLoop=1;jettySize=auto;html=1;entryX=0;entryY=0.5;entryDx=0;entryDy=0;" edge="1" parent="1" source="j6zDTzHuyQ6x4GbX-fn--6" target="j6zDTzHuyQ6x4GbX-fn--1">
          <mxGeometry relative="1" as="geometry">
            <Array as="points">
              <mxPoint x="540" y="300" />
              <mxPoint x="540" y="370" />
              <mxPoint x="290" y="370" />
              <mxPoint x="290" y="300" />
            </Array>
          </mxGeometry>
        </mxCell>
        <mxCell id="j6zDTzHuyQ6x4GbX-fn--9" value="&lt;svg style=&quot;vertical-align: -0.439ex;&quot; xmlns:xlink=&quot;http://www.w3.org/1999/xlink&quot; viewBox=&quot;0 -704 791 898&quot; role=&quot;img&quot; height=&quot;2.032ex&quot; width=&quot;1.79ex&quot; xmlns=&quot;http://www.w3.org/2000/svg&quot;&gt;&lt;defs&gt;&lt;path d=&quot;M399 -80Q399 -47 400 -30T402 -11V-7L387 -11Q341 -22 303 -22Q208 -22 138 35T51 201Q50 209 50 244Q50 346 98 438T227 601Q351 704 476 704Q514 704 524 703Q621 689 680 617T740 435Q740 255 592 107Q529 47 461 16L444 8V3Q444 2 449 -24T470 -66T516 -82Q551 -82 583 -60T625 -3Q631 11 638 11Q647 11 649 2Q649 -6 639 -34T611 -100T557 -165T481 -194Q399 -194 399 -87V-80ZM636 468Q636 523 621 564T580 625T530 655T477 665Q429 665 379 640Q277 591 215 464T153 216Q153 110 207 59Q231 38 236 38V46Q236 86 269 120T347 155Q372 155 390 144T417 114T429 82T435 55L448 64Q512 108 557 185T619 334T636 468ZM314 18Q362 18 404 39L403 49Q399 104 366 115Q354 117 347 117Q344 117 341 117T337 118Q317 118 296 98T274 52Q274 18 314 18Z&quot; id=&quot;MJX-1-TEX-I-1D444&quot;&gt;&lt;/path&gt;&lt;/defs&gt;&lt;g transform=&quot;scale(1,-1)&quot; stroke-width=&quot;0&quot; fill=&quot;currentColor&quot; stroke=&quot;currentColor&quot;&gt;&lt;g data-mml-node=&quot;math&quot;&gt;&lt;g data-mml-node=&quot;mi&quot;&gt;&lt;use xlink:href=&quot;#MJX-1-TEX-I-1D444&quot; data-c=&quot;1D444&quot;&gt;&lt;/use&gt;&lt;/g&gt;&lt;/g&gt;&lt;/g&gt;&lt;/svg&gt;" style="text;html=1;align=center;verticalAlign=middle;whiteSpace=wrap;rounded=0;fontSize=22;" vertex="1" parent="1">
          <mxGeometry x="380" y="270" width="60" height="30" as="geometry" />
        </mxCell>
        <mxCell id="j6zDTzHuyQ6x4GbX-fn--11" value="&lt;font style=&quot;font-size: 21px;&quot;&gt;$$\bar{Q}$$&lt;/font&gt;" style="text;html=1;align=center;verticalAlign=middle;whiteSpace=wrap;rounded=0;" vertex="1" parent="1">
          <mxGeometry x="499" y="270" width="60" height="30" as="geometry" />
        </mxCell>
        <mxCell id="j6zDTzHuyQ6x4GbX-fn--12" value="" style="group" vertex="1" connectable="0" parent="1">
          <mxGeometry x="288" y="461" width="70" height="80" as="geometry" />
        </mxCell>
        <mxCell id="j6zDTzHuyQ6x4GbX-fn--13" value="" style="triangle;whiteSpace=wrap;html=1;" vertex="1" parent="j6zDTzHuyQ6x4GbX-fn--12">
          <mxGeometry width="60" height="80" as="geometry" />
        </mxCell>
        <mxCell id="j6zDTzHuyQ6x4GbX-fn--21" style="edgeStyle=orthogonalEdgeStyle;rounded=0;orthogonalLoop=1;jettySize=auto;html=1;" edge="1" parent="j6zDTzHuyQ6x4GbX-fn--12" source="j6zDTzHuyQ6x4GbX-fn--14">
          <mxGeometry relative="1" as="geometry">
            <mxPoint x="119.34781281844448" y="40" as="targetPoint" />
          </mxGeometry>
        </mxCell>
        <mxCell id="j6zDTzHuyQ6x4GbX-fn--14" value="" style="ellipse;whiteSpace=wrap;html=1;aspect=fixed;" vertex="1" parent="j6zDTzHuyQ6x4GbX-fn--12">
          <mxGeometry x="60" y="35" width="10" height="10" as="geometry" />
        </mxCell>
        <mxCell id="j6zDTzHuyQ6x4GbX-fn--15" value="" style="group" vertex="1" connectable="0" parent="1">
          <mxGeometry x="288" y="597" width="70" height="80" as="geometry" />
        </mxCell>
        <mxCell id="j6zDTzHuyQ6x4GbX-fn--16" value="" style="triangle;whiteSpace=wrap;html=1;" vertex="1" parent="j6zDTzHuyQ6x4GbX-fn--15">
          <mxGeometry width="60" height="80" as="geometry" />
        </mxCell>
        <mxCell id="j6zDTzHuyQ6x4GbX-fn--20" style="edgeStyle=orthogonalEdgeStyle;rounded=0;orthogonalLoop=1;jettySize=auto;html=1;" edge="1" parent="j6zDTzHuyQ6x4GbX-fn--15" source="j6zDTzHuyQ6x4GbX-fn--17">
          <mxGeometry relative="1" as="geometry">
            <mxPoint x="119.34781281844448" y="40" as="targetPoint" />
          </mxGeometry>
        </mxCell>
        <mxCell id="j6zDTzHuyQ6x4GbX-fn--17" value="" style="ellipse;whiteSpace=wrap;html=1;aspect=fixed;" vertex="1" parent="j6zDTzHuyQ6x4GbX-fn--15">
          <mxGeometry x="60" y="35" width="10" height="10" as="geometry" />
        </mxCell>
        <mxCell id="j6zDTzHuyQ6x4GbX-fn--25" value="" style="endArrow=classic;html=1;rounded=0;entryX=0;entryY=0.5;entryDx=0;entryDy=0;" edge="1" parent="1" target="j6zDTzHuyQ6x4GbX-fn--16">
          <mxGeometry width="50" height="50" relative="1" as="geometry">
            <mxPoint x="375" y="501" as="sourcePoint" />
            <mxPoint x="260" y="644" as="targetPoint" />
            <Array as="points">
              <mxPoint x="375" y="523" />
              <mxPoint x="259" y="593" />
              <mxPoint x="259" y="637" />
            </Array>
          </mxGeometry>
        </mxCell>
        <mxCell id="j6zDTzHuyQ6x4GbX-fn--26" value="" style="endArrow=classic;html=1;rounded=0;entryX=0;entryY=0.5;entryDx=0;entryDy=0;" edge="1" parent="1">
          <mxGeometry width="50" height="50" relative="1" as="geometry">
            <mxPoint x="373" y="637" as="sourcePoint" />
            <mxPoint x="288" y="503" as="targetPoint" />
            <Array as="points">
              <mxPoint x="373" y="601" />
              <mxPoint x="259" y="536" />
              <mxPoint x="259" y="503" />
            </Array>
          </mxGeometry>
        </mxCell>
        <mxCell id="j6zDTzHuyQ6x4GbX-fn--27" value="&lt;svg style=&quot;vertical-align: -0.439ex;&quot; xmlns:xlink=&quot;http://www.w3.org/1999/xlink&quot; viewBox=&quot;0 -704 791 898&quot; role=&quot;img&quot; height=&quot;2.032ex&quot; width=&quot;1.79ex&quot; xmlns=&quot;http://www.w3.org/2000/svg&quot;&gt;&lt;defs&gt;&lt;path d=&quot;M399 -80Q399 -47 400 -30T402 -11V-7L387 -11Q341 -22 303 -22Q208 -22 138 35T51 201Q50 209 50 244Q50 346 98 438T227 601Q351 704 476 704Q514 704 524 703Q621 689 680 617T740 435Q740 255 592 107Q529 47 461 16L444 8V3Q444 2 449 -24T470 -66T516 -82Q551 -82 583 -60T625 -3Q631 11 638 11Q647 11 649 2Q649 -6 639 -34T611 -100T557 -165T481 -194Q399 -194 399 -87V-80ZM636 468Q636 523 621 564T580 625T530 655T477 665Q429 665 379 640Q277 591 215 464T153 216Q153 110 207 59Q231 38 236 38V46Q236 86 269 120T347 155Q372 155 390 144T417 114T429 82T435 55L448 64Q512 108 557 185T619 334T636 468ZM314 18Q362 18 404 39L403 49Q399 104 366 115Q354 117 347 117Q344 117 341 117T337 118Q317 118 296 98T274 52Q274 18 314 18Z&quot; id=&quot;MJX-1-TEX-I-1D444&quot;&gt;&lt;/path&gt;&lt;/defs&gt;&lt;g transform=&quot;scale(1,-1)&quot; stroke-width=&quot;0&quot; fill=&quot;currentColor&quot; stroke=&quot;currentColor&quot;&gt;&lt;g data-mml-node=&quot;math&quot;&gt;&lt;g data-mml-node=&quot;mi&quot;&gt;&lt;use xlink:href=&quot;#MJX-1-TEX-I-1D444&quot; data-c=&quot;1D444&quot;&gt;&lt;/use&gt;&lt;/g&gt;&lt;/g&gt;&lt;/g&gt;&lt;/svg&gt;" style="text;html=1;align=center;verticalAlign=middle;whiteSpace=wrap;rounded=0;fontSize=22;" vertex="1" parent="1">
          <mxGeometry x="412" y="486" width="60" height="30" as="geometry" />
        </mxCell>
        <mxCell id="j6zDTzHuyQ6x4GbX-fn--28" value="&lt;font style=&quot;font-size: 21px;&quot;&gt;$$\bar{Q}$$&lt;/font&gt;" style="text;html=1;align=center;verticalAlign=middle;whiteSpace=wrap;rounded=0;" vertex="1" parent="1">
          <mxGeometry x="412" y="619" width="60" height="30" as="geometry" />
        </mxCell>
      </root>
    </mxGraphModel>
  </diagram>
</mxfile>
